<svg xmlns="http://www.w3.org/2000/svg" viewBox="0 0 686.51 329.82"><defs><style>.cls-1{fill:#c1272d;}.cls-2{fill:#ed1c24;stroke:#000;stroke-miterlimit:10;opacity:0.53;}.cls-20,.cls-3,.cls-4,.cls-8{fill:aqua;}.cls-3{opacity:0.68;}.cls-4{opacity:0.37;}.cls-5{fill:#f15a24;}.cls-21,.cls-6{fill:#4d4d4d;}.cls-6{opacity:0.83;}.cls-7{fill:red;opacity:0.79;}.cls-8{opacity:0.67;}.cls-9{fill:#666;}.cls-10,.cls-12,.cls-13,.cls-14,.cls-15,.cls-16,.cls-17,.cls-19{fill:#fff;}.cls-11{fill:gray;}.cls-12{opacity:0.47;}.cls-13{opacity:0.44;}.cls-14{opacity:0.42;}.cls-15{opacity:0.36;}.cls-16{opacity:0.21;}.cls-17{opacity:0.25;}.cls-18{fill:#333;}.cls-19{opacity:0.17;}</style></defs><title>car_svg</title><g id="Layer_2" data-name="Layer 2"><g id="Layer_1-2" data-name="Layer 1"><path class="cls-1" d="M170.83,111.57a184.44,184.44,0,0,1,50-71.47A177,177,0,0,1,243.9,28.79c124-50,271.34,55.2,318.22,91.35,3.37,1.94,50.81,30.18,51,78.57a80.16,80.16,0,0,1-10.2,38.78l-429.16,8.1c2-44.28-35.64-77-70.63-72.93C71.87,176.28,44.49,209,48.41,248L8,248.71C5.13,242.13-6.47,213.9,4.89,181,18.83,140.55,56,126.12,61.1,124.22Z"/><path class="cls-2" d="M188.11,102.89A114.73,114.73,0,0,1,232.75,45c48.79-32.61,105.41-17.29,112.32-15.31V209.51l-156.25,3.21Z"/><path class="cls-3" d="M327.07,105.7V36.58C319.3,35,281.74,28.2,245.71,51.7c-28.28,18.46-39.17,44.85-42.48,54Z"/><path class="cls-4" d="M44.73,141.9a89.43,89.43,0,0,0-32.1,57.52l17.08-6.6a114.23,114.23,0,0,1,15-11.47A116.14,116.14,0,0,1,77,167.06,21.53,21.53,0,0,0,44.73,141.9Z"/><path class="cls-5" d="M552.17,118.6a40.41,40.41,0,0,1-10.11,14.2c-6.74,6-11.23,5.57-12,9-1.54,6.91,13.65,21.19,29.88,22.32,5.89.42,11-1,14.4,2.52,2.92,3,2.79,8,2.16,11.88,2.84,7.16,10.6,10.79,17.28,8.64A14.14,14.14,0,0,0,603.23,173a123,123,0,0,0-51.06-54.43Z"/><path class="cls-6" d="M369.55,105.34V34.45a165.82,165.82,0,0,1,22.64,7.93,162.77,162.77,0,0,1,73.48,63.28Z"/><path class="cls-7" d="M358.3,19.61C397.76,2.05,410.09-1.46,411.13.48c.91,1.7-7.59,6.33-9,15.67-.92,6.1,1.55,11.79,4.49,16.28-6.94-2.5-14.51-4.92-22.68-7.13C374.86,22.85,366.26,21,358.3,19.61Z"/><path class="cls-3" d="M412.32,34.45a7.77,7.77,0,0,0-2.09,5A7.88,7.88,0,0,0,412.32,45c3.58,2.16,8.95,5.56,15.19,10.14,6.95,5.11,11.74,9.32,14.54,11.77,21.9,19.12,33,28.77,39.34,29,5,.16,13.79-1.51,24.93-14.63a508.31,508.31,0,0,0-94-46.78Z"/><path class="cls-8" d="M173.26,105.66l6.16,0A208.1,208.1,0,0,1,190,85.3a175.08,175.08,0,0,1,16.32-23.52c8.35-10.08,12.52-15.12,20.16-19.68s15.17-6.46,14.88-7.65c-.24-1-5.42-.56-10.07,0a56.67,56.67,0,0,0-10.47,5.65,60.58,60.58,0,0,0-12.16,11.26c-8.86,10.31-15.51,18-23.21,30.74A198.47,198.47,0,0,0,173.26,105.66Z"/><circle cx="499.6" cy="234.17" r="71.14"/><circle class="cls-9" cx="501.13" cy="235.84" r="35.46"/><path d="M173.91,242.72c0,38.73-30.66,74.64-63.81,71.13-28-3-48-33.06-51.13-61.52-3.91-35.51,17.43-77.19,51.13-80.75S173.9,204.36,173.91,242.72Z"/><ellipse class="cls-10" cx="138.06" cy="244.39" rx="23.55" ry="40.3"/><path class="cls-11" d="M127.05,208.77a52.06,52.06,0,0,1,13.62,33.84,52.86,52.86,0,0,1-14,37.08c3.53,2.57,9.3,5.77,15.49,4.37,13.23-3,18.57-24.67,19.37-36.74a60.48,60.48,0,0,0-6-29.93c-.85-1.66-5.76-10.93-14.25-12.92a14.23,14.23,0,0,0-7.09,0A15.28,15.28,0,0,0,127.05,208.77Z"/><circle class="cls-10" cx="501.35" cy="237.46" r="15.84"/><circle class="cls-1" cx="501.13" cy="237.46" r="11.41"/><path class="cls-1" d="M120.76,244.67c.14,8.09-3.12,15.6-4.4,15.41-.5-.07-.76-2.32-1.27-6.81-.26-2.21-.46-4.08-.55-6.72a84.17,84.17,0,0,1,.76-12.33c.41-3.93.56-4.19.76-4.23C117.22,229.77,120.62,236.94,120.76,244.67Z"/><path class="cls-12" d="M241.4,105.7l35.07-67.61a112.43,112.43,0,0,1,13.76-2.68c3.28-.43,6.39-.69,9.31-.82l-33,71.07Z"/><path class="cls-13" d="M287.47,105.66q14.05-35.37,28.13-70.74c1.64.15,3.35.34,5.12.58,1.46.21,2.87.43,4.23.68q-9.19,34.74-18.38,69.48Z"/><path class="cls-14" d="M449.77,74.21l15-16.66,12.52,6.87L456.84,80.84Z"/><path class="cls-15" d="M418.36,212.19a106.24,106.24,0,0,1,75-56.46,51.71,51.71,0,0,0-23.71-2.82c-20.24,2.37-32.28,16.39-36,20.7A65.31,65.31,0,0,0,418.36,212.19Z"/><path class="cls-15" d="M176.2,212.4a67.22,67.22,0,0,0-26-37.33c-21.26-14.85-43.75-11.79-48.47-11A65.53,65.53,0,0,1,132,159.7c8.29.81,23.16,2.1,34,13.91C179.87,188.68,176.72,209.35,176.2,212.4Z"/><path d="M286,132.4H312a1.5,1.5,0,0,0,0-3H286a1.5,1.5,0,0,0,0,3Z"/><path class="cls-16" d="M505.11,222.08l7.9-12.7c-.16-2.37-.31-4.74-.47-7.11a35.46,35.46,0,0,1,15.51,10.5l-11.8,3.45-8.07,6.95Z"/><path class="cls-17" d="M491.54,249.9l-6.25,6.1q-1.44,5-2.87,10a35.86,35.86,0,0,1-12.8-13.84l11.53-.09,7.51-5.1a15,15,0,0,0,1.47,1.71A16.5,16.5,0,0,0,491.54,249.9Z"/><ellipse class="cls-18" cx="397.07" cy="318.46" rx="289.44" ry="11.37"/><path class="cls-19" d="M0,212.72H53.58A72.51,72.51,0,0,0,48.41,248L8,248.71a98.24,98.24,0,0,1-8-36Z"/><path class="cls-19" d="M167.67,212.41l264.26-.23a71.47,71.47,0,0,0-3.16,28.59l-255,4.82a77,77,0,0,0-6.11-33.18Z"/><path class="cls-19" d="M567.48,212.82a71.6,71.6,0,0,1,3.15,25.28l32.31-.61a82.35,82.35,0,0,0,5.57-12.36,83.41,83.41,0,0,0,3.37-12.41Z"/><ellipse class="cls-20" cx="45.43" cy="161.51" rx="4.07" ry="11.83"/><path class="cls-21" d="M45.43,149.56a19.14,19.14,0,0,1,0,23.65C56.2,174.37,64,167.07,64,161.39S56.2,148.41,45.43,149.56Z"/><path class="cls-9" d="M369.55,63.22l22.64-20.84c2.27,1,4.62,2.07,7,3.25q3.93,1.93,7.44,3.89L369.55,82.3Z"/><path class="cls-9" d="M369.55,90.76l44-37.19c1.6,1,3.23,2.07,4.86,3.15s3.1,2.06,4.61,3.08l-53.46,41.76Z"/><path class="cls-9" d="M570.63,238.1l20.69-.39c0,2,0,3.92,0,5.87h26.28v7.2H591.31v7.92l-24.71-.57a71.61,71.61,0,0,0,2.69-9.6A70.48,70.48,0,0,0,570.63,238.1Z"/></g></g></svg>